HIERARCHY
ROOT hip
{
	OFFSET 0.000000 0.000000 0.000000 
	CHANNELS 6 Xposition Yposition Zposition Xrotation Zrotation Yrotation
	JOINT abdomen
	{
		OFFSET 0.000000 0.000000 0.000000 
		CHANNELS 3 Xrotation Zrotation Yrotation
		JOINT chest
		{
			OFFSET 0.000000 4.862840 -1.823974 
			CHANNELS 3 Xrotation Zrotation Yrotation
			JOINT neckDummy
			{
				OFFSET 0.000000 8.059053 0.760605 
				CHANNELS 3 Xrotation Yrotation Zrotation
				JOINT neck
				{
					OFFSET 0.000000 2.209834 -0.380644 
					CHANNELS 3 Xrotation Zrotation Yrotation
					JOINT head
					{
						OFFSET 0.000000 3.388650 0.513082 
						CHANNELS 3 Xrotation Zrotation Yrotation
						End Site
						{
							OFFSET 0.000000 10.033302 0.000000 
						}
					}
				}
			}
			JOINT lCollar
			{
				OFFSET 0.580691 8.059053 0.760605 
				CHANNELS 3 Yrotation Zrotation Xrotation
				JOINT lShldr
				{
					OFFSET 6.222462 0.009832 -0.321848 
					CHANNELS 3 Zrotation Yrotation Xrotation
					JOINT lForeArm
					{
						OFFSET 10.220657 0.024782 0.183730 
						CHANNELS 3 Yrotation Zrotation Xrotation
						JOINT lHand
						{
							OFFSET 10.719483 0.309727 0.636712 
							CHANNELS 3 Zrotation Yrotation Xrotation
							End Site
							{
								OFFSET 10.033305 0.000000 0.000000 
							}
						}
					}
				}
			}
			JOINT rCollar
			{
				OFFSET -0.580691 8.059053 0.760605 
				CHANNELS 3 Yrotation Zrotation Xrotation
				JOINT rShldr
				{
					OFFSET -6.222462 0.009832 -0.321848 
					CHANNELS 3 Zrotation Yrotation Xrotation
					JOINT rForeArm
					{
						OFFSET -10.220657 0.024782 0.183730 
						CHANNELS 3 Yrotation Zrotation Xrotation
						JOINT rHand
						{
							OFFSET -10.719483 0.309727 0.636712 
							CHANNELS 3 Zrotation Yrotation Xrotation
							End Site
							{
								OFFSET -10.033305 0.000000 0.000000 
							}
						}
					}
				}
			}
		}
	}
	JOINT lThigh
	{
		OFFSET 4.361177 -6.202389 -1.775974 
		CHANNELS 3 Xrotation Zrotation Yrotation
		JOINT lShin
		{
			OFFSET -1.317052 -18.333157 1.143369 
			CHANNELS 3 Xrotation Zrotation Yrotation
			JOINT lFoot
			{
				OFFSET -0.636132 -16.703447 -0.302338 
				CHANNELS 3 Xrotation Yrotation Zrotation
				End Site
				{
					OFFSET 0.000000 -2.207327 5.819317 
				}
			}
		}
	}
	JOINT rThigh
	{
		OFFSET -4.361177 -6.202389 -1.775974 
		CHANNELS 3 Xrotation Zrotation Yrotation
		JOINT rShin
		{
			OFFSET 1.317052 -18.333157 1.143369 
			CHANNELS 3 Xrotation Zrotation Yrotation
			JOINT rFoot
			{
				OFFSET 0.636132 -16.703447 -0.302338 
				CHANNELS 3 Xrotation Yrotation Zrotation
				End Site
				{
					OFFSET 0.000000 -2.207327 5.819317 
				}
			}
		}
	}
}
MOTION
Frames: 6
Frame Time: 0.011111
23.001900 43.668358 -119.628326 0.000000 0.000000 0.000000 15.585918 -1.269125 -0.684895 -15.574419 1.406427 0.319049 0.000000 0.000000 0.000000 2.263154 4.817603 -0.632551 0.000000 0.000000 0.000000 -2.946841 -9.472683 0.034639 16.954262 -27.228712 2.009142 -25.613224 -1.647971 0.049003 8.524705 12.647240 -45.472057 7.873402 6.594518 -1.033983 -13.629775 17.582769 1.746171 25.603458 1.647971 0.048722 -8.534408 -12.637552 44.535015 4.215952 8.931233 2.962548 -0.118544 -5.940502 -0.672257 -4.998022 -0.518039 -3.249264 4.225246 -8.968497 -3.006060 -0.107311 5.930717 0.664555 -5.004471 0.503532 3.232534 
23.001900 43.668358 -119.628326 8.906013 -1.747928 -2.092659 11.803150 0.137417 -0.398688 -16.257542 5.589677 0.261985 0.000000 0.000000 0.000000 -16.672894 -7.267067 -0.524631 27.250996 18.424038 1.575086 -2.946841 -9.472683 0.034639 -61.184010 -19.894129 42.094532 -48.029003 7.223424 7.369848 8.524705 12.647240 -43.841198 7.873402 6.594518 -1.033983 59.125553 19.553915 35.114590 52.426910 -8.223530 9.152386 -8.534408 -12.637552 57.796734 -32.519894 11.650936 7.676191 69.246574 -1.637640 -8.845555 -21.697319 12.363307 1.664661 -11.961008 2.851595 1.224038 32.142044 5.189238 5.124782 -24.659016 8.104540 6.095860 
23.001606 43.912685 -118.983521 9.068042 -1.725574 -2.757674 11.609470 -0.177867 0.316776 -15.861544 6.282224 0.501368 0.000000 0.000000 0.000000 -17.026461 -7.667719 -0.534673 27.517006 18.077974 1.336744 -2.946841 -9.472683 0.034639 -61.392929 -18.566334 43.253342 -48.994946 7.461578 7.752534 8.524705 12.647240 -42.718155 7.873402 6.594518 -1.033983 57.899109 20.871220 37.615246 53.615780 -8.445184 9.647153 -8.534408 -12.637552 59.027206 -35.375591 12.057982 6.956155 67.793449 -1.794010 -8.762176 -21.692335 10.632948 1.131687 -9.977243 2.977663 1.891584 29.696287 5.335220 4.808335 -24.353395 7.398614 5.729716 
23.019184 44.032215 -118.342522 8.988027 -1.822177 -3.106153 11.668975 -0.304645 1.009864 -15.202168 6.460582 0.750907 0.000000 0.000000 0.000000 -18.079618 -7.653315 -0.659119 28.427225 17.545282 0.851070 -2.946841 -9.472683 0.034639 -61.398785 -18.341606 43.972691 -48.204731 7.263951 7.437591 8.524705 12.647240 -42.307999 7.873402 6.594518 -1.033983 57.082970 22.559277 39.135864 54.765701 -8.640219 10.131529 -8.534408 -12.637552 59.867046 -37.155632 12.381614 6.584255 66.214287 -1.998383 -8.637715 -21.923607 9.894748 0.955429 -8.788113 3.154410 1.967530 29.426832 5.345772 4.777654 -24.858095 7.375300 5.751589 
23.035297 43.748920 -117.794388 9.030937 -2.712267 -3.466648 11.894032 0.552308 1.897190 -15.047597 6.056618 0.940730 0.000000 0.000000 0.000000 -18.761497 -7.449177 -0.795737 28.862621 17.376137 0.504796 -2.946841 -9.472683 0.034639 -60.780220 -17.892179 45.649513 -47.240353 7.010870 7.054269 8.524705 12.647240 -40.989632 7.873402 6.594518 -1.033983 56.709473 24.177525 40.347897 55.823269 -8.802763 10.580862 -8.534408 -12.637552 60.521343 -37.811436 13.349089 6.906386 64.800064 -2.173775 -8.521818 -23.266834 8.043388 0.658861 -7.659985 4.341479 2.278118 28.985674 5.378286 4.707423 -24.947008 6.872367 5.498034 
23.035589 43.518360 -117.276436 9.215284 -3.875680 -3.922836 12.139765 1.832369 2.508841 -15.480769 5.868058 1.001520 0.000000 0.000000 0.000000 -18.196566 -7.603648 -0.670334 27.989172 17.646492 0.767862 -2.946841 -9.472683 0.034639 -61.085373 -15.963653 43.360558 -47.934731 7.194586 7.333683 8.524705 12.647240 -42.806042 7.873402 6.594518 -1.033983 56.124512 25.433262 42.342190 57.010605 -8.966552 11.093488 -8.534408 -12.637552 61.429546 -39.780540 14.704901 4.758283 62.837776 -2.407763 -8.373806 -25.822561 3.930686 -0.411058 -6.754152 5.934179 2.985403 28.845215 5.384190 4.705485 -25.213810 6.132422 5.136066 
